FP1 Session aired in Bahrain, source is Sky Sports F1 with Martin Brundle and his team.

Technical Information :

Video
ID                             : 2
Format                         : AVC
Format/Info                    : Advanced Video Codec
Format profile                 : High@L3.1
Format settings, CABAC         : Yes
Format settings, ReFrames      : 5 frames
Codec ID                       : avc1
Codec ID/Info                  : Advanced Video Coding
Duration                       : 1h 51mn
Bit rate                       : 987 Kbps
Maximum bit rate               : 3 054 Kbps
Width                          : 700 pixels
Height                         : 390 pixels
Display aspect ratio           : 16:9
Frame rate mode                : Constant
Frame rate                     : 25.000 fps
Color space                    : YUV
Chroma subsampling             : 4:2:0
Bit depth                      : 8 bits
Scan type                      : Progressive
Bits/(Pixel*Frame)             : 0.145
Stream size                    : 790 MiB (88%)
Title                          : Video
Writing library                : x264 core 130 r2273 b3065e6

Audio
ID                             : 1
Format                         : AAC
Format/Info                    : Advanced Audio Codec
Format profile                 : LC
Codec ID                       : 40
Duration                       : 1h 51mn
Bit rate mode                  : Variable
Bit rate                       : 128 Kbps
Maximum bit rate               : 144 Kbps
Channel(s)                     : 2 channels
Channel positions              : Front: L R
Sampling rate                  : 48.0 KHz
Compression mode               : Lossy
Stream size                    : 102 MiB (11%)
Encoded date                   : UTC 2013-04-19 09:55:08
Tagged date                    : UTC 2013-04-19 09:55:14


Screens :
 
http://i.imgur.com/yfCI7fo.jpg
 
http://i.imgur.com/Q4nrTao.jpg
 
http://i.imgur.com/dqw4OJd.jpg